<?xml version="1.0" encoding="UTF-8" standalone="no"?>
<svg
   xmlns:dc="http://purl.org/dc/elements/1.1/"
   xmlns:cc="http://creativecommons.org/ns#"
   xmlns:rdf="http://www.w3.org/1999/02/22-rdf-syntax-ns#"
   xmlns:svg="http://www.w3.org/2000/svg"
   xmlns="http://www.w3.org/2000/svg"
   xmlns:sodipodi="http://sodipodi.sourceforge.net/DTD/sodipodi-0.dtd"
   xmlns:inkscape="http://www.inkscape.org/namespaces/inkscape"
   width="1200"
   height="900"
   version="1.1"
   viewBox="0 0 1200 900"
   id="svg28"
   sodipodi:docname="screenshot.svg"
   inkscape:version="0.92.4 (5da689c313, 2019-01-14)"
   inkscape:export-filename="screenshot.png"
   inkscape:export-xdpi="96"
   inkscape:export-ydpi="96">
  <metadata
     id="metadata34">
    <rdf:RDF>
      <cc:Work
         rdf:about="">
        <dc:format>image/svg+xml</dc:format>
        <dc:type
           rdf:resource="http://purl.org/dc/dcmitype/StillImage" />
        <dc:title />
      </cc:Work>
    </rdf:RDF>
  </metadata>
  <defs
     id="defs32" />
  <sodipodi:namedview
     pagecolor="#ffffff"
     bordercolor="#666666"
     borderopacity="1"
     objecttolerance="10"
     gridtolerance="10"
     guidetolerance="10"
     inkscape:pageopacity="1"
     inkscape:pageshadow="2"
     inkscape:window-width="640"
     inkscape:window-height="480"
     id="namedview30"
     showgrid="false"
     inkscape:showpageshadow="false"
     borderlayer="true"
     showguides="false"
     inkscape:guide-bbox="true"
     inkscape:snap-bbox="true"
     inkscape:object-paths="true"
     inkscape:bbox-nodes="true"
     inkscape:bbox-paths="true"
     inkscape:snap-intersection-paths="true"
     inkscape:snap-center="true"
     inkscape:zoom="0.5"
     inkscape:cx="329.63235"
     inkscape:cy="397.6764"
     inkscape:current-layer="svg28">
    <sodipodi:guide
       position="145.10147,450"
       orientation="0,1"
       id="guide842"
       inkscape:locked="false"
       inkscape:label=""
       inkscape:color="rgb(0,0,255)" />
    <sodipodi:guide
       position="600,758.62832"
       orientation="1,0"
       id="guide844"
       inkscape:locked="false"
       inkscape:label=""
       inkscape:color="rgb(0,0,255)" />
    <sodipodi:guide
       position="500,613.52685"
       orientation="1,0"
       id="guide846"
       inkscape:locked="false"
       inkscape:label=""
       inkscape:color="rgb(0,0,255)" />
    <sodipodi:guide
       position="700,577.25148"
       orientation="1,0"
       id="guide848"
       inkscape:locked="false"
       inkscape:label=""
       inkscape:color="rgb(0,0,255)" />
    <sodipodi:guide
       position="400,329.63268"
       orientation="1,0"
       id="guide850"
       inkscape:locked="false"
       inkscape:label=""
       inkscape:color="rgb(0,0,255)" />
    <sodipodi:guide
       position="800,304.39764"
       orientation="1,0"
       id="guide852"
       inkscape:locked="false"
       inkscape:label=""
       inkscape:color="rgb(0,0,255)" />
    <sodipodi:guide
       position="225.53815,550"
       orientation="0,1"
       id="guide854"
       inkscape:locked="false"
       inkscape:label=""
       inkscape:color="rgb(0,0,255)" />
    <sodipodi:guide
       position="179.79964,350"
       orientation="0,1"
       id="guide856"
       inkscape:locked="false"
       inkscape:label=""
       inkscape:color="rgb(0,0,255)" />
    <sodipodi:guide
       position="257.08194,650"
       orientation="0,1"
       id="guide858"
       inkscape:locked="false"
       inkscape:label=""
       inkscape:color="rgb(0,0,255)" />
    <sodipodi:guide
       position="154.5646,250"
       orientation="0,1"
       id="guide860"
       inkscape:locked="false"
       inkscape:label=""
       inkscape:color="rgb(0,0,255)" />
    <inkscape:grid
       type="xygrid"
       id="grid864"
       spacingx="10"
       spacingy="10"
       originy="0" />
    <sodipodi:guide
       position="2359.2618,269.05413"
       orientation="0,1"
       id="guide940"
       inkscape:locked="false" />
    <sodipodi:guide
       position="302.6417,0"
       orientation="0,1"
       id="guide845"
       inkscape:locked="false"
       inkscape:label=""
       inkscape:color="rgb(0,0,255)" />
  </sodipodi:namedview>
  <g
     inkscape:groupmode="layer"
     id="layer1"
     inkscape:label="pen" />
  <path
     style="opacity:1;fill:#1a1a1a;fill-opacity:1;stroke:none;stroke-width:6;stroke-linecap:square;stroke-linejoin:round;stroke-miterlimit:4;stroke-dasharray:none;stroke-dashoffset:0;stroke-opacity:1;paint-order:normal"
     d="m -740,250 h 200 l 100,200 C -540,500 -590,650 -640,850 -690,650 -740,500 -840,450 Z"
     id="path862"
     inkscape:connector-curvature="0"
     sodipodi:nodetypes="cccccc" />
  <rect
     style="opacity:1;fill:#ffffff;fill-opacity:1;stroke:none;stroke-width:6;stroke-linecap:square;stroke-linejoin:round;stroke-miterlimit:4;stroke-dasharray:none;stroke-dashoffset:0;stroke-opacity:1;paint-order:normal"
     id="rect866"
     width="40"
     height="457.38504"
     x="-660"
     y="450" />
  <circle
     style="opacity:1;fill:#ffffff;fill-opacity:1;stroke:none;stroke-width:6;stroke-linecap:square;stroke-linejoin:round;stroke-miterlimit:4;stroke-dasharray:none;stroke-dashoffset:0;stroke-opacity:1;paint-order:normal"
     id="path868"
     cx="-640"
     cy="450"
     r="60" />
  <path
     d="m 599.99999,-617.20107 v 313.26568 m -82.00027,181.36434 -82.00027,-164.87668 c 82.00027,-41.21916 123.00041,-164.87667 164.00054,-329.75334 41.00014,164.87667 82.00028,288.53418 164.00055,329.75334 l -82.00027,164.87668 z m 82.00027,-82.43834 c 27.17252,0 49.20017,-22.14534 49.20017,-49.463 0,-27.31766 -22.02765,-49.463 -49.20017,-49.463 -27.17251,0 -49.20016,22.14534 -49.20016,49.463 0,27.31766 22.02765,49.463 49.20016,49.463 z"
     style="opacity:1;fill:none;fill-opacity:1;stroke:#000000;stroke-width:20;stroke-linecap:round;stroke-linejoin:round;stroke-miterlimit:4;stroke-dasharray:none;stroke-dashoffset:0;stroke-opacity:1;paint-order:normal"
     id="path882"
     inkscape:connector-curvature="0"
     sodipodi:nodetypes="ccccccccsssss" />
  <g
     id="g903">
    <path
       d="M 1566.019,697.34363 V 560.3265 m -35.0001,-79.3257 -35.0001,72.11428 c 35.0001,18.02856 52.5002,72.11427 70.0002,144.22855 17.5,-72.11428 35,-126.19999 70.0001,-144.22855 L 1601.019,481.0008 Z m 35.0001,36.05714 c 11.5979,0 21,9.686 21,21.63428 0,11.94828 -9.4021,21.63428 -21,21.63428 -11.5981,0 -21.0001,-9.686 -21.0001,-21.63428 0,-11.94828 9.402,-21.63428 21.0001,-21.63428 z"
       style="opacity:1;fill:none;fill-opacity:1;stroke:#000000;stroke-width:10;stroke-linecap:round;stroke-linejoin:round;stroke-miterlimit:4;stroke-dasharray:none;stroke-dashoffset:0;stroke-opacity:1;paint-order:normal"
       id="path884"
       inkscape:connector-curvature="0"
       sodipodi:nodetypes="ccccccccsssss" />
    <circle
       r="95"
       cy="356.00079"
       cx="1566.0189"
       id="path886"
       style="opacity:1;fill:none;fill-opacity:1;stroke:#000000;stroke-width:10;stroke-linecap:round;stroke-linejoin:round;stroke-miterlimit:4;stroke-dasharray:none;stroke-dashoffset:0;stroke-opacity:1;paint-order:normal" />
    <path
       sodipodi:nodetypes="ccccc"
       inkscape:connector-curvature="0"
       id="circle888"
       d="m 1566.0195,261 c -50.5537,0.0632 -92.2029,39.70627 -94.7597,90.19531 C 1538.8386,347.15534 1583.583,326.70316 1608.5,292 c 10.0057,33.2505 27.676,52.56531 52.3477,59.15039 -2.5812,-50.49776 -44.2645,-90.12488 -94.8282,-90.15039 z"
       style="opacity:1;fill:#000000;fill-opacity:1;stroke:none;stroke-width:10;stroke-linecap:round;stroke-linejoin:round;stroke-miterlimit:4;stroke-dasharray:none;stroke-dashoffset:0;stroke-opacity:1;paint-order:normal" />
  </g>
  <path
     id="path944"
     style="opacity:1;fill:none;fill-opacity:1;stroke:#000000;stroke-width:10;stroke-linecap:round;stroke-linejoin:round;stroke-miterlimit:4;stroke-dasharray:none;stroke-dashoffset:0;stroke-opacity:1;paint-order:normal"
     d="m 2330.7998,583.81236 h 98.4004 M 2380,202.79893 v 313.26568 m -82.0003,181.36434 -82.0002,-164.87668 C 2297.9997,491.33311 2338.9999,367.6756 2380,202.79893 c 41.0001,164.87667 82.0003,288.53418 164.0005,329.75334 l -82.0002,164.87668 z m 32.8001,-66.48308 v -65.41826 c 0,-27.31766 22.0277,-49.463 49.2002,-49.463 27.1725,0 49.2002,22.14534 49.2002,49.463 v 65.41826" />
  <g
     transform="translate(-186.0189,-29.223504)"
     id="g957">
    <path
       d="M 1986.019,697.34363 V 560.3265 m -35.0001,-79.3257 -35.0001,72.11428 c 35.0001,18.02856 52.5002,72.11427 70.0002,144.22855 17.5,-72.11428 35,-126.19999 70.0001,-144.22855 L 2021.019,481.0008 Z m 35.0001,36.05714 c 11.5979,0 21,9.686 21,21.63428 0,11.94828 -9.4021,21.63428 -21,21.63428 -11.5981,0 -21.0001,-9.686 -21.0001,-21.63428 0,-11.94828 9.402,-21.63428 21.0001,-21.63428 z"
       style="opacity:1;fill:none;fill-opacity:1;stroke:#000000;stroke-width:10;stroke-linecap:round;stroke-linejoin:round;stroke-miterlimit:4;stroke-dasharray:none;stroke-dashoffset:0;stroke-opacity:1;paint-order:normal"
       id="path947"
       inkscape:connector-curvature="0"
       sodipodi:nodetypes="ccccccccsssss" />
    <circle
       r="95"
       cy="-1152.5969"
       cx="1656.058"
       id="circle949"
       style="opacity:1;fill:none;fill-opacity:1;stroke:#000000;stroke-width:10;stroke-linecap:round;stroke-linejoin:round;stroke-miterlimit:4;stroke-dasharray:none;stroke-dashoffset:0;stroke-opacity:1;paint-order:normal"
       transform="rotate(45)" />
    <path
       id="path951"
       style="opacity:1;fill:none;fill-opacity:1;stroke:#000000;stroke-width:10;stroke-linecap:round;stroke-linejoin:round;stroke-miterlimit:4;stroke-dasharray:none;stroke-dashoffset:0;stroke-opacity:1;paint-order:normal"
       sodipodi:type="arc"
       sodipodi:cx="1641.9159"
       sodipodi:cy="-1166.739"
       sodipodi:rx="55"
       sodipodi:ry="55"
       sodipodi:start="0"
       sodipodi:end="1.5707963"
       sodipodi:open="true"
       d="m 1696.9159,-1166.739 a 55,55 0 0 1 -55,55"
       transform="rotate(45)" />
    <circle
       r="5"
       cy="339.24667"
       cx="1952.0775"
       id="circle953"
       style="opacity:1;fill:none;fill-opacity:1;stroke:#000000;stroke-width:10;stroke-linecap:round;stroke-linejoin:round;stroke-miterlimit:4;stroke-dasharray:none;stroke-dashoffset:0;stroke-opacity:1;paint-order:normal" />
    <circle
       style="opacity:1;fill:none;fill-opacity:1;stroke:#000000;stroke-width:10;stroke-linecap:round;stroke-linejoin:round;stroke-miterlimit:4;stroke-dasharray:none;stroke-dashoffset:0;stroke-opacity:1;paint-order:normal"
       id="circle955"
       cx="2019.9603"
       cy="339.24667"
       r="5" />
  </g>
  <path
     inkscape:connector-curvature="0"
     id="path843"
     style="opacity:1;fill:none;fill-opacity:1;stroke:#1a1a1a;stroke-width:3;stroke-linecap:round;stroke-linejoin:round;stroke-miterlimit:4;stroke-dasharray:none;stroke-dashoffset:0;stroke-opacity:1;paint-order:normal"
     d="M 545.57703,597.85888 H 654.42297 M 600,176.52138 v 346.4198 m -90.70491,200.5588 -90.7048,-182.3262 C 509.29509,495.59218 554.6476,358.84758 600,176.52138 c 45.3524,182.3262 90.70491,319.0708 181.40971,364.6524 l -90.7048,182.3262 z m 36.28194,-73.5192 v -72.3418 c 0,-30.2088 24.36602,-54.6978 54.42297,-54.6978 30.05695,0 54.42297,24.489 54.42297,54.6978 v 72.3418" />
  <g
     id="g859"
     transform="translate(0,980)">
    <path
       sodipodi:nodetypes="cccccccc"
       inkscape:connector-curvature="0"
       id="path959"
       style="opacity:1;fill:none;fill-opacity:1;stroke:#000000;stroke-width:3;stroke-linecap:round;stroke-linejoin:round;stroke-miterlimit:4;stroke-dasharray:none;stroke-dashoffset:0;stroke-opacity:1;paint-order:normal"
       d="M 600,176.52136 V 522.94117 M 509.29509,723.5 418.59029,541.17378 C 509.29509,495.59223 554.6476,358.84757 600,176.52136 645.3524,358.84757 690.70491,495.59223 781.40971,541.17378 L 690.70491,723.5 Z" />
    <path
       transform="scale(1,-1)"
       d="m 691.05413,-615.49908 a 91.054131,91.054131 0 0 1 -45.52707,78.85519 91.054131,91.054131 0 0 1 -91.05413,-10e-6 91.054131,91.054131 0 0 1 -45.52706,-78.85519"
       sodipodi:open="true"
       sodipodi:end="3.1415927"
       sodipodi:start="0"
       sodipodi:ry="91.054131"
       sodipodi:rx="91.054131"
       sodipodi:cy="-615.49908"
       sodipodi:cx="600"
       sodipodi:type="arc"
       id="path849"
       style="opacity:1;fill:none;fill-opacity:1;stroke:#000000;stroke-width:3;stroke-linecap:butt;stroke-linejoin:round;stroke-miterlimit:4;stroke-dasharray:none;stroke-dashoffset:0;stroke-opacity:1;paint-order:normal" />
    <path
       sodipodi:nodetypes="cc"
       inkscape:connector-curvature="0"
       id="path851"
       d="M 509.29509,614.5 V 900"
       style="opacity:1;fill:none;fill-opacity:1;stroke:#000000;stroke-width:3;stroke-linecap:butt;stroke-linejoin:round;stroke-miterlimit:4;stroke-dasharray:none;stroke-dashoffset:0;stroke-opacity:1;paint-order:normal" />
    <path
       sodipodi:nodetypes="cc"
       inkscape:connector-curvature="0"
       id="path853"
       d="M 690.70491,614.5 V 900"
       style="opacity:1;fill:none;fill-opacity:1;stroke:#000000;stroke-width:3;stroke-linecap:butt;stroke-linejoin:round;stroke-miterlimit:4;stroke-dasharray:none;stroke-dashoffset:0;stroke-opacity:1;paint-order:normal" />
  </g>
  <path
     style="opacity:1;fill:#1a1a1a;fill-opacity:1;stroke:none;stroke-width:3;stroke-linecap:butt;stroke-linejoin:round;stroke-miterlimit:4;stroke-dasharray:none;stroke-dashoffset:0;stroke-opacity:1;paint-order:normal"
     d="m 499.97529,721.90901 h 199.94504 c 12.465,0 22.5,10.035 22.5,22.5 V 900 H 477.47529 V 744.40901 c 0,-12.465 10.035,-22.5 22.5,-22.5 z"
     id="rect846"
     inkscape:connector-curvature="0"
     sodipodi:nodetypes="sssccss" />
</svg>
